<svg id="Режим_изоляции" data-name="Режим изоляции" xmlns="http://www.w3.org/2000/svg" xmlns:xlink="http://www.w3.org/1999/xlink" viewBox="0 0 425.11 370.3"><defs><style>.cls-1{fill:#f6b432;}.cls-2{fill:#eaa633;}.cls-3{fill:#f6c640;}.cls-4{fill:#ececec;}.cls-5{fill:#f6dd49;}.cls-6{fill:#ea892c;opacity:0.78;}.cls-7{fill:#8e5729;}.cls-13,.cls-19,.cls-7{opacity:0.3;}.cls-8{opacity:0.1;}.cls-9{fill:url(#linear-gradient);}.cls-10{fill:url(#linear-gradient-2);}.cls-11{fill:#9b1e0e;}.cls-12{fill:#fff;}.cls-13,.cls-14{fill:#c6c6c5;}.cls-14{opacity:0.2;}.cls-15{opacity:0.07;}.cls-16{fill:#dc4336;}.cls-17{fill:#6d0505;opacity:0.5;}.cls-18{fill:url(#linear-gradient-3);}.cls-19{fill:#280f3a;}.cls-20{fill:url(#linear-gradient-4);}.cls-21{fill:#adadad;}.cls-22{fill:url(#linear-gradient-5);}.cls-23{fill:url(#linear-gradient-6);}.cls-24{opacity:0.7;}.cls-25{fill:#ffd712;}.cls-26{fill:url(#linear-gradient-7);}</style><linearGradient id="linear-gradient" x1="343.02" y1="400.3" x2="334.77" y2="500.12" gradientTransform="translate(19.9 -15.8) rotate(2.27)" gradientUnits="userSpaceOnUse"><stop offset="0.02" stop-color="#e84c3d"/><stop offset="0.15" stop-color="#dc3336"/><stop offset="0.44" stop-color="#c43333"/><stop offset="0.6" stop-color="#ca3334"/><stop offset="0.82" stop-color="#dc3336"/><stop offset="1" stop-color="#e84c3d"/></linearGradient><linearGradient id="linear-gradient-2" x1="50.3" y1="134.64" x2="370.24" y2="134.64" gradientTransform="matrix(1, 0, 0, 1, 0, 0)" xlink:href="#linear-gradient"/><linearGradient id="linear-gradient-3" x1="514.11" y1="460.49" x2="504.06" y2="436.37" gradientTransform="translate(19.9 -15.8) rotate(2.27)" gradientUnits="userSpaceOnUse"><stop offset="0.02" stop-color="#dc3336"/><stop offset="0.61" stop-color="#b63333"/><stop offset="1" stop-color="#bd3333"/></linearGradient><linearGradient id="linear-gradient-4" x1="214.61" y1="14" x2="214.61" y2="100.05" gradientUnits="userSpaceOnUse"><stop offset="0" stop-color="#5c5c5c"/><stop offset="0.28" stop-color="#3e3e3e"/><stop offset="1"/></linearGradient><linearGradient id="linear-gradient-5" x1="297.13" y1="392.6" x2="266.13" y2="393.6" gradientUnits="userSpaceOnUse"><stop offset="0" stop-color="#f7b719"/><stop offset="1" stop-color="#dd721b"/></linearGradient><linearGradient id="linear-gradient-6" x1="296.88" y1="281.28" x2="296.88" y2="369.52" xlink:href="#linear-gradient-5"/><linearGradient id="linear-gradient-7" x1="119.61" y1="99.09" x2="119.61" y2="117.91" xlink:href="#linear-gradient-5"/></defs><title>books</title><g id="object"><path class="cls-1" d="M180.3,488.85s-15.65,35,.62,66.14L476.45,621.8s-11.7-31.58-5.95-78.66Z" transform="translate(-173.53 -251.5)"/><polygon class="cls-2" points="306.77 358.95 385.71 305.2 366.79 304.45 301.82 349.03 306.77 358.95"/><path class="cls-3" d="M538.75,499l-6-.75-248.36-35.1L180.3,488.85s288.89,54.23,290.16,54.93,68.37-35.74,82.24-43.26Z" transform="translate(-173.53 -251.5)"/><path class="cls-4" d="M548.49,511.36L477.35,550s-5.56,29.92,2.18,55.51l66.52-47Z" transform="translate(-173.53 -251.5)"/><path class="cls-5" d="M480.3,610.45s-6.79-34-3-60.4l78-42.61-0.13-6.82-2.59-.1-82.17,43.26s-8.46,50.06,6,78l83-58.77-0.23-6.33Z" transform="translate(-173.53 -251.5)"/><path class="cls-6" d="M211,509l-29.35-5.19S176.85,527,183,544.7l25.6,5.6Q208.79,529.68,211,509Z" transform="translate(-173.53 -251.5)"/><path class="cls-6" d="M414.53,545c-2.95,16.27-3.76,32.89-3.51,49.6l42.58,10.63s-2.36-34.36,4.19-52.58Z" transform="translate(-173.53 -251.5)"/><path class="cls-6" d="M411.52,544.32l-15.62-2.76a439.5,439.5,0,0,0-6.11,48.05l18.17,4C407.75,577,408.61,560.5,411.52,544.32Z" transform="translate(-173.53 -251.5)"/><path class="cls-6" d="M228.64,512.95L214,510.36q-2.21,20.86-2.34,41.65l14.44,3.16A335.74,335.74,0,0,1,228.64,512.95Z" transform="translate(-173.53 -251.5)"/><path class="cls-6" d="M237.16,521.79a0.49,0.49,0,0,1,.57-0.41c3.27,0.43,4.9.65,8.17,1.11a4.18,4.18,0,0,1,3.61,4.63l-2.69,19.51a4.05,4.05,0,0,1-4.72,3.37c-3.26-.51-4.89-0.76-8.15-1.23a0.49,0.49,0,0,1-.43-0.55Zm9,4.87a1,1,0,0,0-.9-1.15l-5-.7-2.94,21.33,5,0.76a1,1,0,0,0,1.17-.84Z" transform="translate(-173.53 -251.5)"/><path class="cls-6" d="M254.68,551.56a0.47,0.47,0,0,1-.56.4l-2.38-.4a0.5,0.5,0,0,1-.43-0.57L255,524.31a0.48,0.48,0,0,1,.57-0.41l2.38,0.37a0.5,0.5,0,0,1,.43.56Z" transform="translate(-173.53 -251.5)"/><path class="cls-6" d="M271.22,529.4l-3.8-.63a1,1,0,0,0-1.17.84l-2.77,20.11a1.08,1.08,0,0,0,.89,1.19l4,0.71a1,1,0,0,0,1.17-.83l0.61-4.43a0.46,0.46,0,0,1,.56-0.4l2.38,0.43a0.51,0.51,0,0,1,.43.58l-0.6,4.34a4,4,0,0,1-4.71,3.33l-4.47-.81a4.36,4.36,0,0,1-3.59-4.8l2.75-20a4,4,0,0,1,4.72-3.39l4.3,0.71a4.33,4.33,0,0,1,3.59,4.79l-0.36,2.59a0.47,0.47,0,0,1-.56.4l-2.38-.41a0.51,0.51,0,0,1-.43-0.57l0.35-2.55A1.07,1.07,0,0,0,271.22,529.4Z" transform="translate(-173.53 -251.5)"/><path class="cls-6" d="M292.67,530.11a0.51,0.51,0,0,1,.43.58l-0.3,2.15a0.47,0.47,0,0,1-.57.4l-4.36-.78L284.49,557a0.46,0.46,0,0,1-.56.4l-2.37-.45a0.52,0.52,0,0,1-.43-0.59l3.37-24.48-4.33-.76a0.51,0.51,0,0,1-.43-0.58L280,528.4a0.47,0.47,0,0,1,.56-0.41C285.43,528.83,287.84,529.25,292.67,530.11Z" transform="translate(-173.53 -251.5)"/><path class="cls-6" d="M297.13,559.45a0.46,0.46,0,0,1-.56.4l-2.37-.46a0.52,0.52,0,0,1-.43-0.59l3.76-27.3a0.47,0.47,0,0,1,.56-0.41l2.38,0.43a0.52,0.52,0,0,1,.43.59Z" transform="translate(-173.53 -251.5)"/><path class="cls-6" d="M305.38,536.48a4,4,0,0,1,4.72-3.4l4.54,0.83a4.45,4.45,0,0,1,3.57,4.94l-2.84,20.6a3.94,3.94,0,0,1-4.71,3.36l-4.53-.9a4.52,4.52,0,0,1-3.57-5Zm9.46,1.78A1.1,1.1,0,0,0,314,537l-4-.74a1,1,0,0,0-1.17.84l-2.83,20.57a1.12,1.12,0,0,0,.88,1.23l4,0.79a1,1,0,0,0,1.17-.83Z" transform="translate(-173.53 -251.5)"/><path class="cls-6" d="M324.22,535.84l2.34,0.42a0.64,0.64,0,0,1,.46.6c1.55,7.5,2.33,11.26,3.88,18.79L333.34,538a0.47,0.47,0,0,1,.57-0.42l2.38,0.42a0.52,0.52,0,0,1,.43.59l-3.84,27.87a0.46,0.46,0,0,1-.57.41l-2.16-.42a0.65,0.65,0,0,1-.46-0.61c-1.62-7.54-2.43-11.29-4.06-18.79l-2.41,17.53a0.46,0.46,0,0,1-.56.41l-2.37-.47a0.53,0.53,0,0,1-.43-0.6l3.81-27.68A0.47,0.47,0,0,1,324.22,535.84Z" transform="translate(-173.53 -251.5)"/><path class="cls-6" d="M349.59,540.32a0.58,0.58,0,0,1,.46.6q0.43,14.46.85,28.93c0,0.52-.35.46-0.35,0.46l-2.66-.49a0.52,0.52,0,0,1-.35-0.59l-0.05-4.37-5.74-1.06-1.22,4.12a0.46,0.46,0,0,1-.49.43l-2.66-.5s-0.35-.07-0.21-0.56q4.29-13.55,8.57-27.11a0.54,0.54,0,0,1,.6-0.42Zm-6.94,20.34,4.82,0.88c-0.09-6.51-.14-9.77-0.23-16.27Z" transform="translate(-173.53 -251.5)"/><path class="cls-6" d="M359.07,542.43a0.48,0.48,0,0,1,.57-0.43c3.26,0.53,4.88.79,8.14,1.3a4.37,4.37,0,0,1,3.57,4.94l-1.19,8.64a4.28,4.28,0,0,1-3.15,3.59c0.48,5,.72,7.44,1.2,12.41,0.07,0.54-.32.47-0.32,0.47l-2.66-.45a0.58,0.58,0,0,1-.43-0.6c-0.47-4.84-.7-7.26-1.17-12.09l-3.48-.58-1.6,11.6a0.48,0.48,0,0,1-.57.42l-2.38-.42a0.52,0.52,0,0,1-.43-0.6Zm8.9,5.32a1.08,1.08,0,0,0-.88-1.23l-5-.8-1.49,10.79,5,0.83a1,1,0,0,0,1.18-.9Z" transform="translate(-173.53 -251.5)"/><path class="cls-6" d="M381.44,566.05l-1.2,8.73a0.49,0.49,0,0,1-.57.44l-2.35-.36a0.51,0.51,0,0,1-.43-0.59l1.2-8.71c-1-8.23-1.44-12.33-2.4-20.53-0.07-.54.28-0.49,0.28-0.49l2.67,0.39a0.55,0.55,0,0,1,.39.58c0.66,5.41,1,8.11,1.66,13.53L386,546.47a0.54,0.54,0,0,1,.54-0.46l2.68,0.35s0.36,0,.14.55C386.15,554.6,384.58,558.43,381.44,566.05Z" transform="translate(-173.53 -251.5)"/><path class="cls-7" d="M548.39,511.54l-71,38.51s-2.54,25.22.57,41.59C477.92,591.63,485,553.75,548.39,511.54Z" transform="translate(-173.53 -251.5)"/><polygon class="cls-8" points="42.09 229.35 19.36 238.6 289.96 270.68 305.21 256.27 42.09 229.35"/><path class="cls-9" d="M229.22,383.19c-0.08,0-14.71-5.07-15.42,13s0,81,0,81,1.51,11.08,14.42,12.24,236.58,32.78,236.58,32.78c-9.47-5-8.81-55.51-9-86.92,0-4.93-.1-9.86-0.11-14.79,0-4.43-.61-12.92,1.15-16.91,1-2.19,2.73-3.44,4.24-5.09-9.75-1.07-19.55-1.66-29.34-2.27q-28.42-1.77-56.84-3.62-32.3-2.13-64.6-4.19-27.55-1.76-55.09-3.57c-8.34-.54-16.69-1.06-25-1.61A4.26,4.26,0,0,1,229.22,383.19Z" transform="translate(-173.53 -251.5)"/><polygon class="cls-10" points="50.3 131.99 287.59 147.01 370.24 137.96 161.56 122.27 50.3 131.99"/><polygon class="cls-11" points="365.54 228.06 351.38 227.03 349.73 231.82 281.99 260.54 295.04 270.28 365.53 228.32 365.54 228.06"/><path class="cls-12" d="M536.1,392.43s-14.09,73.34-9.89,90L459.79,516.6l-1.91-101s-2.37-13.71,9.35-15.19S536.1,392.43,536.1,392.43Z" transform="translate(-173.53 -251.5)"/><polygon class="cls-13" points="281.55 165.43 360.09 153.47 359.51 156.17 281.44 168.18 281.55 165.43"/><polygon class="cls-14" points="281.11 172.22 359.11 160.03 358.5 162.64 281.01 174.97 281.11 172.22"/><polygon class="cls-13" points="285.32 184.71 356.78 172.47 356.27 174.81 285.21 187.46 285.32 184.71"/><polygon class="cls-13" points="285.09 190.53 356.16 177.68 355.78 180.79 284.98 193.28 285.09 190.53"/><polygon class="cls-14" points="284.22 196 355.29 183.65 354.92 186.89 284.07 199.73 284.22 196"/><polygon class="cls-14" points="281.27 217.85 353.24 200.83 352.88 203.45 281.34 220.6 281.27 217.85"/><polygon class="cls-13" points="281.46 226.27 352.38 209.68 352.05 211.92 281.52 229.02 281.46 226.27"/><polygon class="cls-14" points="283.43 245.76 351.85 220.04 351.91 222.32 283.85 248.48 283.43 245.76"/><polygon class="cls-14" points="281.37 222.06 352.82 204.95 352.47 207.56 281.43 224.81 281.37 222.06"/><path class="cls-15" d="M458.74,517.3l1.1-113.71,75.25-9.66-2.49,13.51S476.75,418.84,458.74,517.3Z" transform="translate(-173.53 -251.5)"/><path class="cls-16" d="M539.06,479.79l-65.39,33.95s-6.83,4.07-9.91,1.78-2.22-11.26-2.22-11.26l-0.35-86.11s-1.64-15.05,7.92-15.73c11.72-.83,74.69-7.73,74.69-7.73l0.21-5.34s-77.78,6.28-82.88,9.17c0,0-7,.88-6.73,19.36,0.19,14.42.42,68.34,0.93,94A10.59,10.59,0,0,0,460,520.7c2.77,1.61,6.91,1.94,9,1,21.09-9.51,61.86-32,69.84-36.47Z" transform="translate(-173.53 -251.5)"/><polygon class="cls-17" points="60.77 148.54 57.81 223.29 80.06 226.11 83.06 150.39 60.77 148.54"/><polygon class="cls-17" points="244.72 163.4 241.09 255.18 263.32 258.45 267 165.47 244.72 163.4"/><path class="cls-17" d="M283.25,441.33c-5.18-.48-7.77-0.7-13-1.06L269.67,450c5.78,0.46,8.66.73,14.43,1.33l-0.19,2.95c-7.49-.8-11.23-1.15-18.74-1.7l1.71-26.75c7.22,0.35,10.82.6,18,1.19l-0.19,2.94c-5.48-.46-8.22-0.66-13.71-1l-0.54,8.49c5.19,0.35,7.78.56,13,1Z" transform="translate(-173.53 -251.5)"/><path class="cls-17" d="M290.26,440.51c0.13-2,.19-3.7.14-5.33l3.85,0.38,0,3.28h0.1c1.31-1.75,4.19-3.3,8.14-2.86,3.31,0.37,8.33,2.62,7.9,9.48l-0.76,11.93-4.34-.59,0.73-11.47c0.21-3.21-1.05-6.06-5.15-6.52a5.8,5.8,0,0,0-6.06,3,4.22,4.22,0,0,0-.4,1.64l-0.76,11.84-4.34-.51Z" transform="translate(-173.53 -251.5)"/><path class="cls-17" d="M338.56,440.92c-0.19,1.47-.4,3.1-0.56,5.59l-0.76,11.87c-0.3,4.69-1.61,7.39-4,8.82s-5.82,1.57-8.82,1.11a19.19,19.19,0,0,1-7.82-2.86l1.26-2.62a16.69,16.69,0,0,0,6.89,2.62c4.43,0.67,7.81-.82,8.14-6l0.15-2.27h-0.1c-1.45,1.7-4.11,2.84-7.8,2.3a10.71,10.71,0,0,1-9.52-11.24c0.44-6.8,6-10,11.44-9.31,4.14,0.53,6.29,2.67,7.22,4.5h0.1l0.39-3Zm-5,7.46a4.7,4.7,0,0,0-.14-1.72,6.74,6.74,0,0,0-5.82-4.71c-4.14-.54-7.29,2-7.59,6.7-0.25,4,1.9,7.57,6.58,8.24a5.81,5.81,0,0,0,6.25-2.92,5.35,5.35,0,0,0,.47-1.93Z" transform="translate(-173.53 -251.5)"/><path class="cls-17" d="M346.18,432.21l4.34,0.52L348.58,463l-4.34-.63Z" transform="translate(-173.53 -251.5)"/><path class="cls-17" d="M362.41,438c-0.06,1.27-1.19,2.21-2.91,2a2.6,2.6,0,0,1-2.47-2.63,2.35,2.35,0,0,1,2.86-2A2.62,2.62,0,0,1,362.41,438Zm-6.54,26,1.33-20.78,4.34,0.53-1.33,20.85Z" transform="translate(-173.53 -251.5)"/><path class="cls-17" d="M367.06,461.68a13.2,13.2,0,0,0,5.62,2.25c3.16,0.4,4.73-.83,4.84-2.57s-1.06-3-4.19-4.41c-4.18-1.87-6.1-4.2-5.93-6.71,0.22-3.38,3.5-5.78,8.64-5.23a13.76,13.76,0,0,1,5.79,1.93l-1.27,2.69a10.7,10.7,0,0,0-4.81-1.75c-2.57-.28-4.08.85-4.18,2.42-0.11,1.74,1.27,2.69,4.31,4.1,4.06,1.87,6.06,3.94,5.86,7.1-0.24,3.73-3.67,6-9.34,5.26a15.84,15.84,0,0,1-6.61-2.31Z" transform="translate(-173.53 -251.5)"/><path class="cls-17" d="M388.94,436.78l4.35,0.35-0.85,13.34h0.1a7.74,7.74,0,0,1,3.29-2.48,10.06,10.06,0,0,1,4.52-.77c3.22,0.23,8.25,2.32,7.78,9.8l-0.83,12.89-4.35-.34,0.79-12.4c0.22-3.48-1-6.51-5.13-6.82a6.12,6.12,0,0,0-6.09,3.41,4.2,4.2,0,0,0-.42,1.83l-0.83,12.9-4.35-.46Z" transform="translate(-173.53 -251.5)"/><path class="cls-7" d="M493.31,441.78l12.16,24.3s3.47-26.11-12.16-24.3" transform="translate(-173.53 -251.5)"/><path class="cls-18" d="M493.3,441.37l20.59-3.64s14.48,7.77,8,24l-16.42,4.31S507.9,441,493.3,441.37Z" transform="translate(-173.53 -251.5)"/><path class="cls-19" d="M310.33,388.44s4.45,39.36-17.69,41.06c-26,2-35-27-32-43Z" transform="translate(-173.53 -251.5)"/><polygon class="cls-20" points="4.11 70 209.1 93.46 425.11 73 208.11 7 4.11 70"/><path d="M275.64,381.5s102,18,215,8c0,0,24.78-57.09,11-67-37.41-26.9-134.91-47.9-234-9C251.71,319.75,275.64,381.5,275.64,381.5Z" transform="translate(-173.53 -251.5)"/><polygon class="cls-21" points="4.11 70 208.11 7 425.11 73 425.11 67 208.11 0 3.11 65 4.11 70"/><path class="cls-22" d="M292.3,367c13-.59,19,17.16,21,27.94,2,11.22.18,22.09-13.6,23.29-12.71,1.11-24-.11-24.9-15.14C274,390.31,277.2,367.64,292.3,367Z" transform="translate(-173.53 -251.5)"/><path class="cls-23" d="M305,274.5s-14.48-.81-8.74,93.1H291S280.64,264.5,305,274.5Z" transform="translate(-173.53 -251.5)"/><g class="cls-24"><path class="cls-25" d="M299.38,412.11c0,0.68.07,1.36,0.09,2C299.47,413.55,299.43,412.86,299.38,412.11Z" transform="translate(-173.53 -251.5)"/><path class="cls-25" d="M297.72,394.8c0.37,6.27,1.36,13,1.66,17.31C299.08,406.29,298.34,400.57,297.72,394.8Z" transform="translate(-173.53 -251.5)"/><path class="cls-25" d="M296.77,370.5c-13.34-1.38-12.75,36-9.9,43.2v1.8c3.95-10.65,2.51-24.52,6.1-35-1.65,10.75,1.38,22.75.16,33.81,5.14-10.08.33-24.39,3.69-35.43a129.11,129.11,0,0,0,.91,15.95c-0.41-6.85-.08-13.17,2.7-15.23,3.54,9.52-1.94,21.6,5.15,30.21C309,402.91,305.94,371.44,296.77,370.5Z" transform="translate(-173.53 -251.5)"/></g><circle class="cls-26" cx="119.61" cy="107.5" r="10"/><circle class="cls-25" cx="121.61" cy="106.5" r="5.5"/></g></svg>