<svg xmlns="http://www.w3.org/2000/svg" xmlns:xlink="http://www.w3.org/1999/xlink" viewBox="0 0 324.52 412.03"><defs><style>.cls-1{isolation:isolate;}.cls-2{fill:url(#linear-gradient);}.cls-3{fill:#333;}.cls-4{fill:#fff;}.cls-17,.cls-5{fill:#2d3e50;}.cls-6{fill:#339ecc;opacity:0.31;}.cls-10,.cls-11,.cls-14,.cls-16,.cls-6{mix-blend-mode:multiply;}.cls-7{opacity:0.47;}.cls-8{fill:#e6e7e8;}.cls-9{fill:#e84c3d;}.cls-10,.cls-13{fill:#d9d8d7;}.cls-11,.cls-12{fill:#f2f2f2;}.cls-15{fill:#cccbca;}.cls-16{fill:#e6e5e5;}.cls-17{font-size:21px;font-family:Myriad Pro;}</style><linearGradient id="linear-gradient" x1="400" y1="237.75" x2="400" y2="562.25" gradientUnits="userSpaceOnUse"><stop offset="0" stop-color="#3b99d7"/><stop offset="1" stop-color="#5c74d7"/></linearGradient></defs><title>fly</title><g class="cls-1"><g id="Режим_изоляции" data-name="Режим изоляции"><g id="Objetcs"><path class="cls-2" d="M375.34,239.65c-88.42,13.6-149.3,96.62-135.7,185s96.62,149.28,185,135.67,149.28-96.59,135.68-185S463.76,226,375.34,239.65Z" transform="translate(-237.74 -203.66)"/><g id="Слой_3" data-name="Слой 3"><path class="cls-3" d="M402.25,477.93c-48-1.42-73.41-29-73.41-79.75V352.73h-12V310.3h82.6v42.22H387.94v38.82c0,34.33,7.78,34.33,14,34.33,7,0,14.25,0,14.25-34.54v-38H404.69V310.3h77.9v42.22H471.06v44.59c0,66.8-37.33,80.82-68.65,80.82h-0.15Z" transform="translate(-237.74 -203.66)"/><path class="cls-4" d="M402.33,473c-45.52-1.35-68.6-26.54-68.6-74.87V347.85h-12V315.19H394.6v32.45H383.06v43.7c0,36.22,9,39.22,18.92,39.22,10.84,0,19.14-2.9,19.14-39.43V348.27H409.58V315.19h68.13v32.45H466.17v49.47c0,50.39-21.45,75.94-63.76,75.94h-0.07Z" transform="translate(-237.74 -203.66)"/><path class="cls-5" d="M324.21,317.63h67.94v27.56H380.61v46.15c0,34.4,7.69,41.66,21.36,41.66,13,0,21.58-5.13,21.58-41.87V345.83H412v-28.2h63.24v27.56H463.72v51.92c0,50.63-21.15,73.49-61.32,73.49-43.16-1.28-66.23-23.93-66.23-72.43V345.4h-12V317.63Z" transform="translate(-237.74 -203.66)"/><path class="cls-5" d="M300.38,392.53c-1.77,7.14-7.35,12.73-7.38,12.83a20,20,0,0,1-2.93-15.29c2-8.45,9.9-12.95,9.83-12.84S302.06,385.39,300.38,392.53Z" transform="translate(-237.74 -203.66)"/><path class="cls-5" d="M303.83,411.3c-3.76,4.77-10.5,4.44-10.54,4.36-0.12.1-.91-9.89,3.76-14.75s11.17-2.36,11.14-2.44C308.08,398.56,307.49,406.64,303.83,411.3Z" transform="translate(-237.74 -203.66)"/><path class="cls-5" d="M305.35,426.91c-2.73,5.32-9.39,6.38-9.45,6.31-0.09.11-2.87-9.3,0.69-14.84S307,413.91,307,413.84C306.9,413.93,308,421.7,305.35,426.91Z" transform="translate(-237.74 -203.66)"/><path class="cls-5" d="M309.93,441.65c-1.62,5.72-8,8.08-8,8-0.07.12-4.62-8.47-2.24-14.5,2.31-5.88,9.32-6.4,9.27-6.47C308.89,428.81,311.52,436.05,309.93,441.65Z" transform="translate(-237.74 -203.66)"/><path class="cls-5" d="M317.28,455.11c-0.48,5.92-6.21,9.49-6.28,9.45,0,0.13-6.17-7.39-5-13.74,1.12-6.19,7.87-8.09,7.81-8.14C313.77,442.78,317.75,449.31,317.28,455.11Z" transform="translate(-237.74 -203.66)"/><path class="cls-5" d="M327.11,466.88c0.69,5.92-4.21,10.55-4.29,10.52,0,0.13-7.5-6.07-7.61-12.52-0.11-6.29,6.13-9.49,6.06-9.53S326.42,461.08,327.11,466.88Z" transform="translate(-237.74 -203.66)"/><path class="cls-5" d="M339.11,476.54c1.89,5.69-2,11.21-2.08,11.19,0,0.14-8.64-4.5-10-10.84-1.36-6.17,4.13-10.53,4.05-10.56S337.25,471,339.11,476.54Z" transform="translate(-237.74 -203.66)"/><path class="cls-5" d="M353,483.69c3.09,5.21.39,11.39,0.3,11.4s-9.58-2.7-12.23-8.67c-2.62-5.8,1.91-11.17,1.83-11.18S349.95,478.59,353,483.69Z" transform="translate(-237.74 -203.66)"/><path class="cls-5" d="M368.46,487.89c4.28,4.46,2.92,11.06,2.82,11.09s-10.31-.67-14.23-6c-3.86-5.17-.47-11.34-0.56-11.33S364.25,483.53,368.46,487.89Z" transform="translate(-237.74 -203.66)"/><path class="cls-5" d="M281.69,411.17c3.85,6.06,10.75,4.44,10.71,4.53s0.39-9.54-2.43-15.7a11.72,11.72,0,0,0-9.7-6.61C280.13,393.31,277.69,405,281.69,411.17Z" transform="translate(-237.74 -203.66)"/><path class="cls-5" d="M283.65,431.26c5,5,11.41,2.09,11.39,2.18s-1.53-9.23-5.57-14.49a12,12,0,0,0-10.87-4.3C278.46,414.59,278.5,426.15,283.65,431.26Z" transform="translate(-237.74 -203.66)"/><path class="cls-5" d="M289.55,450.23c5.85,3.88,11.57-.25,11.57-0.17s-3.29-8.67-8.3-12.91a12.09,12.09,0,0,0-11.5-1.94C281.17,435.17,283.52,446.29,289.55,450.23Z" transform="translate(-237.74 -203.66)"/><path class="cls-5" d="M299,467.55c6.49,2.64,11.28-2.54,11.29-2.45s-4.9-7.85-10.63-11-11.63.32-11.63,0.41C287.89,454.52,292.34,464.87,299,467.55Z" transform="translate(-237.74 -203.66)"/><path class="cls-5" d="M311.64,482.69c6.88,1.33,10.55-4.7,10.59-4.62-0.12,0-6.36-6.77-12.57-8.71s-11.32,2.62-11.29,2.7C298.21,472.08,304.59,481.36,311.64,482.69Z" transform="translate(-237.74 -203.66)"/><path class="cls-5" d="M327.08,495.12c7.05,0,9.45-6.69,9.5-6.61-0.12,0-7.66-5.42-14.12-6.11s-10.58,4.79-10.55,4.86C311.76,487.3,319.85,495.19,327.08,495.12Z" transform="translate(-237.74 -203.66)"/><path class="cls-5" d="M344.95,504.31c7-1.43,8-8.44,8.07-8.38-0.12.07-8.79-3.8-15.32-3.22s-9.46,6.78-9.42,6.85C328.13,499.64,337.74,505.81,344.95,504.31Z" transform="translate(-237.74 -203.66)"/><path class="cls-5" d="M364.86,509.72c6.8-2.84,6.27-9.91,6.33-9.86-0.12.11-9.76-1.9-16.16,0a11.91,11.91,0,0,0-7.95,8.6C346.94,508.53,357.88,512.67,364.86,509.72Z" transform="translate(-237.74 -203.66)"/><path class="cls-5" d="M387.11,498.89c0,0.58.08,1.16,0.12,1.74a90.4,90.4,0,0,1-21.68-1.07c0.1-.57.2-1.14,0.3-1.71A88.87,88.87,0,0,0,387.11,498.89Z" transform="translate(-237.74 -203.66)"/><path class="cls-5" d="M499.31,392.85c1.7,7.15,7.23,12.8,7.25,12.9a20,20,0,0,0,3.08-15.26c-2-8.47-9.77-13-9.71-12.93S497.7,385.7,499.31,392.85Z" transform="translate(-237.74 -203.66)"/><path class="cls-5" d="M495.68,411.59c3.72,4.8,10.46,4.54,10.5,4.46,0.12,0.11,1-9.88-3.62-14.79s-11.14-2.46-11.12-2.54C491.56,398.81,492.07,406.9,495.68,411.59Z" transform="translate(-237.74 -203.66)"/><path class="cls-5" d="M494,427.18c2.67,5.35,9.34,6.47,9.38,6.4,0.09,0.11,3-9.28-.54-14.84s-10.39-4.57-10.35-4.64C492.59,414.19,491.41,421.95,494,427.18Z" transform="translate(-237.74 -203.66)"/><path class="cls-5" d="M489.29,441.88c1.57,5.73,7.87,8.16,7.93,8.1,0.06,0.12,4.7-8.42,2.38-14.48-2.26-5.9-9.26-6.49-9.21-6.56C490.46,429,487.76,436.27,489.29,441.88Z" transform="translate(-237.74 -203.66)"/><path class="cls-5" d="M481.81,455.27c0.43,5.93,6.12,9.55,6.19,9.51,0,0.13,6.24-7.33,5.14-13.69-1.06-6.2-7.8-8.17-7.73-8.22C485.44,443,481.4,449.47,481.81,455.27Z" transform="translate(-237.74 -203.66)"/><path class="cls-5" d="M471.88,466.95c-0.75,5.91,4.11,10.59,4.19,10.56,0,0.14,7.56-6,7.73-12.45,0.17-6.29-6-9.55-6-9.59S472.62,461.16,471.88,466.95Z" transform="translate(-237.74 -203.66)"/><path class="cls-5" d="M459.78,476.49c-1.95,5.67,1.89,11.22,2,11.21,0,0.14,8.68-4.41,10.12-10.74,1.42-6.16-4-10.57-4-10.6S461.7,470.94,459.78,476.49Z" transform="translate(-237.74 -203.66)"/><path class="cls-5" d="M445.83,483.5c-3.15,5.18-.51,11.39-0.41,11.4s9.6-2.61,12.31-8.55c2.67-5.78-1.81-11.19-1.72-11.2S448.92,478.43,445.83,483.5Z" transform="translate(-237.74 -203.66)"/><path class="cls-5" d="M430.32,487.56c-4.32,4.42-3,11-2.93,11.06s10.32-.57,14.29-5.86c3.91-5.13.58-11.34,0.67-11.33S434.57,483.24,430.32,487.56Z" transform="translate(-237.74 -203.66)"/><path class="cls-5" d="M517.82,411.67c-3.91,6-10.79,4.34-10.75,4.43s-0.3-9.54,2.58-15.68a11.71,11.71,0,0,1,9.76-6.51C519.55,393.83,521.88,405.55,517.82,411.67Z" transform="translate(-237.74 -203.66)"/><path class="cls-5" d="M515.67,431.74c-5,5-11.43,2-11.41,2.07s1.61-9.22,5.71-14.44a12,12,0,0,1,10.91-4.19C521,415.12,520.87,426.68,515.67,431.74Z" transform="translate(-237.74 -203.66)"/><path class="cls-5" d="M509.6,450.65c-5.89,3.83-11.57-.36-11.57-0.28s3.37-8.64,8.42-12.83A12.09,12.09,0,0,1,518,435.72C518.11,435.68,515.66,446.77,509.6,450.65Z" transform="translate(-237.74 -203.66)"/><path class="cls-5" d="M500,467.88c-6.51,2.58-11.25-2.65-11.27-2.56s5-7.8,10.73-10.87,11.63,0.44,11.62.52C511.21,455,506.66,465.27,500,467.88Z" transform="translate(-237.74 -203.66)"/><path class="cls-5" d="M487.19,482.9c-6.89,1.26-10.51-4.8-10.54-4.72,0.12,0,6.42-6.71,12.65-8.59s11.29,2.73,11.27,2.81C500.72,472.42,494.26,481.64,487.19,482.9Z" transform="translate(-237.74 -203.66)"/><path class="cls-5" d="M471.63,495.19c-7.05-.1-9.39-6.78-9.44-6.71,0.12,0,7.71-5.35,14.18-6s10.53,4.89,10.5,5C487,487.51,478.86,495.32,471.63,495.19Z" transform="translate(-237.74 -203.66)"/><path class="cls-5" d="M453.68,504.2c-7-1.5-7.93-8.52-8-8.46,0.12,0.08,8.83-3.71,15.35-3.07s9.4,6.87,9.35,6.94C470.54,499.69,460.86,505.77,453.68,504.2Z" transform="translate(-237.74 -203.66)"/><path class="cls-5" d="M433.72,509.43c-6.77-2.91-6.17-10-6.24-9.92,0.12,0.1,9.78-1.81,16.16.12a11.89,11.89,0,0,1,7.87,8.67C451.64,508.41,440.66,512.45,433.72,509.43Z" transform="translate(-237.74 -203.66)"/><path class="cls-5" d="M411.56,498.38c0,0.58-.1,1.16-0.14,1.74a90.67,90.67,0,0,0,21.69-.86c-0.09-.57-0.19-1.15-0.28-1.72A88.68,88.68,0,0,1,411.56,498.38Z" transform="translate(-237.74 -203.66)"/></g><path class="cls-6" d="M463.59,403.38a9.38,9.38,0,0,0-7.64-5.1L439.05,397a48.05,48.05,0,0,0-3.86-12.42q-0.36-.77-0.75-1.54L427,368.48l0.62,1.23L440,363.46h0c0.8,1,1.6,1.93,2.38,2.74l0.36,0.37a0.55,0.55,0,0,0,.3.15,0.54,0.54,0,0,0,.33-0.05l2.89-1.47a0.55,0.55,0,0,0,.29-0.57l-0.08-.5c-0.1-.57-0.22-1.16-0.36-1.76l11.35-2a41.15,41.15,0,0,0,3.66,4.45l0.35,0.36a0.57,0.57,0,0,0,.3.15,0.55,0.55,0,0,0,.33-0.05l2.89-1.47a0.57,0.57,0,0,0,.24-0.24,0.6,0.6,0,0,0,.05-0.33s-0.07-.41-0.08-0.5c-0.2-1.13-.48-2.35-0.84-3.62l20.1-3.62-4.12-4a12.75,12.75,0,0,0-7.94-3.6l-13.05-1-3.49-6.88-0.12-.25a1.27,1.27,0,0,0-1.7-.56l-5.35,2.71a1.25,1.25,0,0,0-.63.73,1.27,1.27,0,0,0,.07,1l0.12,0.25,1.15,2.26-10.3-.78-2-3.91-0.12-.24a1.27,1.27,0,0,0-1.71-.56l-5.34,2.71,0,0h0l-0.1.07-0.07,0-0.12.11-0.05.05a1.21,1.21,0,0,0-.13.19h0a1.21,1.21,0,0,0-.1.23,1.27,1.27,0,0,0-.06.51l-8.39-.63h0l-6.53-.49,12.45,24.52h0l-23.88-47q-0.24-.47-0.5-0.91c-0.11-.19-0.24-0.38-0.36-0.57l-0.19-.3c-0.16-.24-0.34-0.48-0.51-0.71l-0.07-.1c-0.17-.23-0.35-0.44-0.54-0.65l-0.09-.11c-0.18-.2-0.36-0.4-0.55-0.59l-0.11-.12c-0.19-.19-0.38-0.37-0.58-0.55l-0.12-.12-0.55-.46-0.18-.15L398,315.2l-0.24-.18-0.45-.29-0.33-.21-0.38-.21-0.43-.23-0.32-.15-0.5-.23-0.27-.11-0.56-.21-0.22-.07-0.63-.19-0.18,0-0.68-.15-0.17,0-0.69-.1-0.22,0-0.62,0h0c-2.58,3.8-2.88,9.35-.35,14.33l11.43,22.51-7.9,12.71a1.24,1.24,0,0,0-.45-0.25,1.2,1.2,0,0,0-.49-0.06h-0.09l-0.14,0L393,362l-0.11,0h0l0,0-5.34,2.71a1.27,1.27,0,0,0-.56,1.71l0.12,0.24,1.31,2.59h0l0.67,1.33-5.45,8.77-1.15-2.26-0.12-.25a1.27,1.27,0,0,0-1.71-.56l-5.34,2.71a1.27,1.27,0,0,0-.56,1.71l0.12,0.25,2.82,5.55h0l0.67,1.32-6.91,11.12a12.77,12.77,0,0,0-1.77,8.54l0.83,5.71,14.79-14.09c0.82,1,1.63,2,2.43,2.81l0.36,0.36a0.52,0.52,0,0,0,.63.1l2.89-1.47a0.54,0.54,0,0,0,.24-0.23,0.55,0.55,0,0,0,.05-0.33s-0.07-.41-0.08-0.5a41.4,41.4,0,0,0-1.43-5.58l8.35-8c0.41,0.47.81,0.92,1.21,1.33l0.36,0.36a0.53,0.53,0,0,0,.3.15,0.55,0.55,0,0,0,.33-0.05l2.9-1.47a0.53,0.53,0,0,0,.23-0.24,0.54,0.54,0,0,0,.06-0.33s-0.07-.41-0.09-0.5c-0.19-1.11-.47-2.29-0.81-3.53h0l12.3-6.25-3.12-6.14,9.89,19.48a48.25,48.25,0,0,0,8.55,11.95l-8.94,14.4a9.38,9.38,0,0,0-.4,9.18l2,3.89,16.25-15.49h0l1.58-1.51,8.15-1.47h0l16.09-2.9Z" transform="translate(-237.74 -203.66)"/><g class="cls-7"><path class="cls-8" d="M484.69,588.3c-4.92,13.37-12.42,22.46-22.43,25.84-21.11,7.11-48.44-10.47-75.41-50.69a1.17,1.17,0,1,1,1.94-1.3c26.35,39.3,52.68,56.54,72.73,49.78,34.39-11.6,37.56-94.6,7.07-185-24-71.27-56.83-122.85-80.11-153.57a1.17,1.17,0,0,1,1.86-1.41c23.38,30.86,56.33,82.67,80.46,154.23C493,492,497.27,554.13,484.69,588.3Z" transform="translate(-237.74 -203.66)"/></g><g class="cls-7"><path class="cls-8" d="M473.81,583c-3.63,9.86-9.13,16.63-16.51,19.45-15.91,6.07-39-8.29-63.39-39.41-0.37-.46.13-0.36,0.59-0.72s2,0.21,2.33.67c23.41,29.88,45,43.11,59.71,37.48,29.54-11.28,27.14-89.66-5.34-174.71-24-62.79-53.75-109.07-74.5-136.83a1.06,1.06,0,1,1,1.7-1.27C399.24,315.53,429.13,362,453.19,425,478.15,490.38,485.23,552,473.81,583Z" transform="translate(-237.74 -203.66)"/></g><path class="cls-9" d="M433.13,360.19l16.57,28.07,46.21-11.39-4.29-7.26a18.13,18.13,0,0,0-15.37-8.89Z" transform="translate(-237.74 -203.66)"/><polygon class="cls-10" points="213.32 156.76 195.39 156.54 211.96 184.61 227.5 180.78 213.32 156.76"/><path class="cls-9" d="M433.13,360.19l16.57,28.07-32.31,34.95L413.1,416a18.12,18.12,0,0,1-.36-17.75Z" transform="translate(-237.74 -203.66)"/><path class="cls-11" d="M440.9,381.3l5.94,10.07,2.86-3.1-16.57-28.07-5.92,11.05A89.93,89.93,0,0,0,440.9,381.3Z" transform="translate(-237.74 -203.66)"/><rect class="cls-12" x="374.22" y="215.31" width="26.3" height="134.7" transform="translate(-327.64 32.47) rotate(-30.55)"/><path class="cls-12" d="M340.75,203.67c-4.51,7.64-4.42,18.38,1.07,27.68s14.84,14.56,23.71,14.3c4.52-7.64,4.42-18.38-1.06-27.67S349.62,203.41,340.75,203.67Z" transform="translate(-237.74 -203.66)"/><path class="cls-12" d="M410.28,347.34a90.87,90.87,0,0,0,35.51,34.29,92.61,92.61,0,0,0-48.36-81.95A90.85,90.85,0,0,0,410.28,347.34Z" transform="translate(-237.74 -203.66)"/><path class="cls-13" d="M432.1,354.65l-0.68,2.64,14.37,24.34a87.75,87.75,0,0,0-3-24.23Z" transform="translate(-237.74 -203.66)"/><path class="cls-4" d="M468.66,247.74a2.45,2.45,0,0,0-3.36-.87l-10,5.89a2.41,2.41,0,0,0-1.12,1.49,2.45,2.45,0,0,0,.26,1.86l0.27,0.46,14.2-8.38Z" transform="translate(-237.74 -203.66)"/><path class="cls-9" d="M477.91,263.42l-9-15.22-14.2,8.38,9,15.22c5.85,9.91,12.41,18.18,18.37,23.63l0.73,0.66a1.11,1.11,0,0,0,.6.26,1.07,1.07,0,0,0,.63-0.15l5.4-3.19a1.1,1.1,0,0,0,.44-0.48,1.15,1.15,0,0,0,.06-0.65s-0.19-.79-0.22-1c-1.9-7.86-6-17.6-11.81-27.5h0Z" transform="translate(-237.74 -203.66)"/><path class="cls-4" d="M432.69,252.82a2.46,2.46,0,0,0-3.36-.87l-10,5.89a2.46,2.46,0,0,0-.87,3.36l0.26,0.45,14.2-8.38Z" transform="translate(-237.74 -203.66)"/><path class="cls-9" d="M441.94,268.48l-9-15.22-14.2,8.38,9,15.22c5.85,9.91,12.41,18.17,18.38,23.64l0.73,0.66a1.06,1.06,0,0,0,.6.25,1,1,0,0,0,.64-0.14l5.4-3.19A1.07,1.07,0,0,0,454,297l-0.23-1c-1.9-7.86-6-17.6-11.81-27.51h0Z" transform="translate(-237.74 -203.66)"/><g class="cls-14"><path class="cls-15" d="M466.41,276.16c-0.91-1.41-1.82-2.87-2.69-4.36l-7.94-13.46L475,258.57l2.86,4.85h0c0.88,1.49,1.73,3,2.52,4.46Z" transform="translate(-237.74 -203.66)"/><path class="cls-15" d="M450.38,285.61a121.9,121.9,0,0,0-8.44-17.13h0l-6.13-10.39-16.54-.2a2.43,2.43,0,0,0-1,1.45,2.45,2.45,0,0,0,.26,1.86l0.26,0.45,9,15.22a122.3,122.3,0,0,0,10.91,15.67Z" transform="translate(-237.74 -203.66)"/></g><path class="cls-12" d="M526,274.6l-8.44-7.28a24.64,24.64,0,0,0-15.75-6L389.26,260l29,49.08,23-13.56Z" transform="translate(-237.74 -203.66)"/><polygon class="cls-15" points="279.15 73.18 203.46 91.85 180.49 105.41 178.53 102.09 201.5 88.53 277.94 72.14 279.15 73.18"/><path class="cls-12" d="M317.51,336.95a2.46,2.46,0,0,1,.87-3.36l10-5.88a2.45,2.45,0,0,1,3.36.86L332,329l-14.2,8.38Z" transform="translate(-237.74 -203.66)"/><path class="cls-9" d="M326.77,352.62l-9-15.22L332,329l9,15.22c5.85,9.91,9.91,19.65,11.81,27.51,0,0.17.22,1,.22,1a1.07,1.07,0,0,1-.07.65,1,1,0,0,1-.43.48L347.1,377a1,1,0,0,1-1.22-.11l-0.74-.65c-6-5.46-12.52-13.73-18.37-23.63h0Z" transform="translate(-237.74 -203.66)"/><path class="cls-12" d="M339.34,307.92a2.46,2.46,0,0,1,.88-3.37l10-5.88a2.47,2.47,0,0,1,3.37.87l0.26,0.45-14.21,8.39Z" transform="translate(-237.74 -203.66)"/><path class="cls-9" d="M348.58,323.58l-9-15.22L353.81,300l9,15.22c5.85,9.91,9.91,19.65,11.81,27.51,0,0.17.23,1,.23,1a1.05,1.05,0,0,1-.07.65,1,1,0,0,1-.42.48L368.92,348a1.06,1.06,0,0,1-.63.14,1,1,0,0,1-.59-0.25l-0.73-.66c-6-5.46-12.53-13.72-18.38-23.64h0Z" transform="translate(-237.74 -203.66)"/><g class="cls-14"><path class="cls-15" d="M371.24,332.32a123,123,0,0,0-8.45-17.13l-9-15.22-0.26-.45a2.48,2.48,0,0,0-3.28-.92l-7.82,14.58,6.13,10.39h0a121.69,121.69,0,0,0,10.92,15.67Z" transform="translate(-237.74 -203.66)"/><path class="cls-15" d="M343.48,348.71c-0.79-1.47-1.64-3-2.51-4.46L333,330.78l-9.12,17,2.86,4.85h0c0.88,1.49,1.78,3,2.69,4.36Z" transform="translate(-237.74 -203.66)"/></g><path class="cls-12" d="M313.32,400.12l-2.3-10.9a24.69,24.69,0,0,1,2.38-16.68l53.21-99.18,29,49.08-23,13.55Z" transform="translate(-237.74 -203.66)"/><polygon class="cls-15" points="81.94 189.58 134.86 132.33 157.83 118.78 155.88 115.46 132.91 129.02 81.61 188.01 81.94 189.58"/><polygon class="cls-10" points="164.18 56.47 151.52 56.33 180.49 105.41 189.81 99.9 164.18 56.47"/><polygon class="cls-11" points="127.67 71.95 155.96 119.88 157.83 118.78 128.87 69.7 127.67 71.95"/><path class="cls-15" d="M348,216a13.05,13.05,0,0,1,11.87-.47c-3.75-4.44-9.67-6-14.12-3.34s-6,8.54-3.89,14A13,13,0,0,1,348,216Z" transform="translate(-237.74 -203.66)"/><rect class="cls-12" x="346.93" y="209.86" width="0.88" height="10.05" transform="translate(-298.74 2.72) rotate(-30.55)"/><rect class="cls-12" x="342.13" y="212.69" width="0.87" height="10.05" transform="matrix(0.86, -0.51, 0.51, 0.86, -300.85, 0.68)"/><rect class="cls-12" x="351.74" y="207.02" width="0.87" height="10.05" transform="matrix(0.86, -0.51, 0.51, 0.86, -296.63, 4.74)"/><path class="cls-16" d="M340.8,203.66c4.55,2.3,10.91,9.33,16.39,18.61l68.46,116a227.6,227.6,0,0,1,20.13,43.27A90.75,90.75,0,0,0,432.93,334L364.47,218C359,208.69,349.65,203.42,340.8,203.66Z" transform="translate(-237.74 -203.66)"/><text class="cls-17" transform="translate(138.59 327.59)">1876</text></g></g></g></svg>