<svg xmlns="http://www.w3.org/2000/svg" xmlns:xlink="http://www.w3.org/1999/xlink" viewBox="0 0 178.28 189.1"><defs><style>.cls-1{isolation:isolate;}.cls-2,.cls-3,.cls-4,.cls-9{stroke:#bcbdbd;}.cls-17,.cls-2,.cls-3,.cls-4,.cls-6,.cls-9{stroke-width:0.5px;}.cls-2{fill:url(#linear-gradient);}.cls-3{fill:url(#linear-gradient-2);}.cls-4{fill:url(#linear-gradient-3);}.cls-11,.cls-5{fill:#181716;}.cls-10,.cls-14,.cls-15,.cls-5,.cls-7{opacity:0.2;}.cls-10,.cls-15,.cls-5,.cls-7{mix-blend-mode:multiply;}.cls-6{fill:#f8f3e8;stroke:#e1ddd4;}.cls-7{fill:#e6e6e7;}.cls-8{fill:#171819;}.cls-9{fill:url(#linear-gradient-4);}.cls-12{fill:#372c21;}.cls-13{fill:#574131;}.cls-14,.cls-18,.cls-34{fill:#fff;}.cls-15{fill:url(#linear-gradient-5);}.cls-16{fill:url(#linear-gradient-6);}.cls-17{fill:none;stroke:#9b4817;}.cls-18{opacity:0.1;}.cls-19{fill:#b37830;}.cls-20{fill:#97652a;}.cls-21{fill:#434343;}.cls-22{fill:#9b9b9b;}.cls-23{fill:#7f7f7e;}.cls-24{fill:#b88440;}.cls-25{fill:#d2cfc7;}.cls-26{fill:#e8e8e8;}.cls-27{fill:#5d5c5a;}.cls-28{fill:#455868;}.cls-29{fill:url(#linear-gradient-7);}.cls-30{fill:url(#linear-gradient-8);}.cls-31{fill:url(#linear-gradient-9);}.cls-32{fill:url(#linear-gradient-10);}.cls-33{fill:#5a7185;}.cls-34{opacity:0.5;}</style><linearGradient id="linear-gradient" x1="142.56" y1="12.71" x2="152.13" y2="12.71" gradientUnits="userSpaceOnUse"><stop offset="0" stop-color="#bcb29e"/><stop offset="0.21" stop-color="#dccfb8"/><stop offset="0.51" stop-color="#f8f3e8"/><stop offset="0.78" stop-color="#ded1bb"/><stop offset="1" stop-color="#bcb29e"/></linearGradient><linearGradient id="linear-gradient-2" x1="147.34" y1="67.61" x2="147.34" y2="24.94" gradientUnits="userSpaceOnUse"><stop offset="0" stop-color="#f8f3e8"/><stop offset="0.69" stop-color="#dccfb8"/><stop offset="0.99" stop-color="#a59c8b"/></linearGradient><linearGradient id="linear-gradient-3" x1="137.47" y1="19.75" x2="157.21" y2="19.75" xlink:href="#linear-gradient"/><linearGradient id="linear-gradient-4" x1="89.14" y1="181.26" x2="89.14" y2="12.58" gradientUnits="userSpaceOnUse"><stop offset="0.51" stop-color="#f8f3e8"/><stop offset="0.78" stop-color="#ded1bb"/><stop offset="1" stop-color="#bcb29e"/></linearGradient><linearGradient id="linear-gradient-5" x1="89.14" y1="54.85" x2="89.14" y2="97.95" gradientUnits="userSpaceOnUse"><stop offset="0.16" stop-color="#ded1bb"/><stop offset="0.87" stop-color="#bcb29e"/></linearGradient><linearGradient id="linear-gradient-6" x1="89.14" y1="182.26" x2="89.14" y2="109.48" gradientUnits="userSpaceOnUse"><stop offset="0" stop-color="#d66115"/><stop offset="0.33" stop-color="#d35f14"/><stop offset="0.57" stop-color="#ca5a12"/><stop offset="0.78" stop-color="#ba520f"/><stop offset="0.97" stop-color="#a4460a"/><stop offset="1" stop-color="#a04409"/></linearGradient><linearGradient id="linear-gradient-7" x1="65.6" y1="65.33" x2="73.79" y2="65.33" gradientUnits="userSpaceOnUse"><stop offset="0.21" stop-color="#a63513"/><stop offset="1" stop-color="#792c09"/></linearGradient><linearGradient id="linear-gradient-8" x1="117.37" y1="112.16" x2="127.21" y2="112.16" xlink:href="#linear-gradient-7"/><linearGradient id="linear-gradient-9" x1="180.65" y1="112.51" x2="188.84" y2="112.51" gradientTransform="matrix(-1, 0, 0, 1, 293.32, -47.18)" xlink:href="#linear-gradient-7"/><linearGradient id="linear-gradient-10" x1="179.83" y1="112.16" x2="189.66" y2="112.16" gradientTransform="matrix(-1, 0, 0, 1, 345.92, 0)" xlink:href="#linear-gradient-7"/></defs><title>house</title><g class="cls-1"><g id="Layer_2" data-name="Layer 2"><rect class="cls-2" x="142.56" y="10.72" width="9.57" height="3.99"/><rect class="cls-3" x="138.47" y="24.94" width="17.75" height="42.67"/><rect class="cls-4" x="137.47" y="13.97" width="19.74" height="11.56"/><rect class="cls-5" x="137.74" y="18.63" width="19.21" height="3.79"/><rect class="cls-6" x="137.07" y="17.56" width="20.54" height="3.79"/><path class="cls-7" d="M202,74.13v0h-10.9v1.5h0v1.79h0v1.1h0v1.79h0v1.1h0v1.79h0v1.1h0v1.79h0v1.2h0V89.1h0v1.1h0V92h0v1.1h0v1.79h0V96h0v1.79h0v1.1h0v1.79h0v1.1h0v1.79h0v1h0v1.79h0v1.1h0v1.79h0v1h0V112h0v1.1h0v1.79h17.57v-1.48h0v-1.83h0v-1.06h0v-1.83h0v-1h0v-1.83h0v-1.06h0V103h0v-1h0v-1.83h0V99.19h0V97.36h0V96.29h0V94.47h0V93.4h0V91.58h0V90.51h0V88.68h0V87.62h0V85.79h0V84.63h0V82.8h0V81.74h0V79.91h0V78.85h0V77h0V76h0V74.13H202Zm3.62,11.58v-1h2.66v1h-2.66ZM205.2,77H202v0h-1.79V76h4.94v1Zm0,2.89H202v0h-1.79v-1h4.94v1Zm0,2.89H202v0h-1.79v-1h4.94v1Zm0,8.77H202v0h-1.79v-1h4.94v1Zm0,2.89H202v0h-1.79v-1h4.94v1Zm0,5.78H202v0h-1.79v-1h4.94v1Zm0,2.79H202v0h-1.79v-0.9h4.94V103Zm0,5.68H202v0h-1.79v-0.9h4.94v0.88Zm0,2.89H202v0h-1.79v-1h4.94v1Zm-2.74.43h5.86v1h-5.86v-1Zm-7.71-36h4.94v1h-4.94V76Zm2.28,33.2H202v0.9H197v-0.9Zm0-2.89H202v1H197v-1Zm0-2.79H202v0.9H197v-0.9Zm2.66,7.08v1h-4.94v-1h4.94Zm2.28-9H197v-1H202v1ZM197,97.77H202v1H197v-1ZM197,92H202v1H197V92Zm0-2.89H202v1H197v-1Zm0-5.88H202v1H197v-1Zm0-2.89H202v1H197v-1ZM202,87.21H197v-1H202v1Zm-2.28,7.28h-4.94v-1h4.94v1Zm-2.66.4H202v1H197v-1ZM202,78.43H197v-1H202v1Zm-7.22,1.49v-1h4.94v1h-4.94Zm4.94,1.89v1h-4.94v-1h4.94Zm-4.94,2.89h4.94v1h-4.94v-1Zm0,3h4.94v1h-4.94v-1Zm0,2.89h4.94v1h-4.94v-1Zm0,5.78h4.94v1h-4.94v-1Zm0,2.89h4.94v1h-4.94v-1Zm4.94,2.89v0.9h-4.94v-0.9h4.94ZM194.75,105h4.94v1h-4.94v-1Zm4.94,2.89v0.9h-4.94v-0.9h4.94ZM197,112H202v1H197v-1Zm5.43-4.7v-1h5.86v1h-5.86Zm2.74-1.39H202v0h-1.79v-1h4.94v1Zm-2.74-5.25h5.86v1h-5.86v-1Zm0-1.93v-1h5.86v1h-5.86Zm2.74-1.4H202v0h-1.79v-1h4.94v1Zm-2.74-2.46h5.86v1h-5.86v-1Zm0-2.89h5.86v1h-5.86V92Zm0-1.93v-1h5.86v1h-5.86Zm2.74-1.4H202v0h-1.79v-1h4.94v1Zm-2.74-2.46h5.86v1h-5.86v-1Zm2.74-.52h-4.94v-1h4.94v1Zm-2.74-1.51v-1h5.86v1h-5.86Zm0-2.89v-1h5.86v1h-5.86Zm0-3.85h5.86v1h-5.86v-1ZM191.53,76h2.66v1h-2.66V76Zm2.66,2.89v1h-2.66v-1h2.66Zm-2.66,2.89h2.66v1h-2.66v-1Zm0,2.89h2.66v1h-2.66v-1Zm4.94,1.49v1h-4.94v-1h4.94Zm-4.94,1.5h2.66v1h-2.66v-1Zm2.66,2.89v1h-2.66v-1h2.66Zm-2.66,2.89h2.66v1h-2.66v-1Zm0,2.89h2.66v1h-2.66v-1Zm0,2.89h2.66v1h-2.66v-1Zm2.66,2.89v0.9h-2.66v-0.9h2.66ZM191.53,105h2.66v1h-2.66v-1Zm2.66,2.89v0.9h-2.66v-0.9h2.66Zm-2.66,2.79h2.66v1h-2.66v-1Zm16.79-.52h-5.86v-0.88h5.86v0.88Zm0-5.68h-5.86v-0.88h5.86v0.88Zm-5.86-29.88h5.86v1h-5.86v-1Zm-5.43,0H202v1H197v-1Zm-5.51,0h4.94v1h-4.94v-1Zm3,2.89h1.9v1h-4.94v-1h3Zm0,2.89h1.9v1h-4.94v-1h3Zm0,2.89h1.9v1h-4.94v-1h3Zm-0.19,5.88h2.09v1h-4.94v-1h2.85ZM196.46,92v1h-4.94V92h4.94Zm-2.09,2.89h2.09v1h-4.94v-1h2.85Zm0.19,2.89h1.9v1h-4.94v-1h3Zm0,2.89h1.9v1h-4.94v-1h3Zm1.9,2.89v0.9h-4.94v-0.9h4.94Zm-2.09,2.79h2.09v1h-4.94v-1h2.85Zm0.19,2.89h1.9v0.9h-4.94v-0.9h3ZM194.38,112h2.09v1h-4.94v-1h2.85Zm-0.19,2.49h-2.66v-1h2.66v1Zm5.51,0h-4.94v-1h4.94v1Zm5.51,0h-4.94v-1h4.94v1Zm3.13,0h-2.66v-1h2.66v1Zm-2.66-2.91v-1h2.66v1h-2.66Zm0-2.89v-0.88h2.66v0.88h-2.66Zm0-2.79v-1h2.66v1h-2.66Zm0-2.89v-0.88h2.66V103h-2.66Zm0-2.79v-1h2.66v1h-2.66Zm0-2.89v-1h2.66v1h-2.66Zm0-2.89v-1h2.66v1h-2.66Zm0-2.89v-1h2.66v1h-2.66Zm0-2.89v-1h2.66v1h-2.66Zm0-5.88v-1h2.66v1h-2.66Zm0-2.89v-1h2.66v1h-2.66Zm0-2.89V76h2.66v1h-2.66Z" transform="translate(-52.59 -47.18)"/><path class="cls-8" d="M223.51,141.69a0.45,0.45,0,0,1-.64,0l-80.55-77.9a0.47,0.47,0,0,0-.65,0l-80.8,77.9a0.46,0.46,0,0,1-.64,0L52.72,134a0.45,0.45,0,0,1,0-.64l88.68-86a0.47,0.47,0,0,1,.65,0l88.68,86.3a0.45,0.45,0,0,1,0,.64Z" transform="translate(-52.59 -47.18)"/><polygon class="cls-9" points="168.4 181.26 9.88 181.26 9.88 87.15 89.44 12.58 168.4 87.15 168.4 181.26"/><g class="cls-10"><path class="cls-11" d="M221.35,141.52a0.46,0.46,0,0,1-.64,0L142.9,65.61a0.47,0.47,0,0,0-.65,0l-79.44,75.5a0.46,0.46,0,0,1-.64,0l-3.94-4.49a0.45,0.45,0,0,1,0-.64l83.54-81.78a0.47,0.47,0,0,1,.65,0l82.81,82.29a0.45,0.45,0,0,1,0,.64Z" transform="translate(-52.59 -47.18)"/></g><path class="cls-12" d="M221.35,138.86a0.46,0.46,0,0,1-.64,0L142.69,61a0.47,0.47,0,0,0-.65,0L62.81,138.45a0.46,0.46,0,0,1-.64,0l-3.94-4.49a0.45,0.45,0,0,1,0-.64l83.54-81.78a0.47,0.47,0,0,1,.65,0l82.81,82.29a0.45,0.45,0,0,1,0,.64Z" transform="translate(-52.59 -47.18)"/><path class="cls-13" d="M141.7,52.19L57.3,134.86,60.07,138a0.46,0.46,0,0,0,.65,0L142,58.54a0.48,0.48,0,0,1,.66,0L222.8,138a0.46,0.46,0,0,0,.65,0l2.71-3.07L142.36,52.19A0.48,0.48,0,0,0,141.7,52.19Z" transform="translate(-52.59 -47.18)"/><rect class="cls-13" x="8.88" y="180.86" width="160.51" height="1.99"/><rect class="cls-12" x="9.68" y="182.46" width="158.91" height="5.98"/><path class="cls-14" d="M54.13,133.83l87.28-84.68a0.46,0.46,0,0,1,.64,0l87.28,84.95,0.34-.36a0.45,0.45,0,0,0,0-.63L142.05,47.83a0.46,0.46,0,0,0-.64,0l-87.62,85a0.45,0.45,0,0,0,0,.63Z" transform="translate(-52.59 -47.18)"/><polygon class="cls-15" points="114.64 54.85 63.64 54.85 63.64 92.35 74.1 92.35 74.1 97.95 103.95 97.95 103.95 92.35 114.64 92.35 114.64 54.85"/><polygon class="cls-5" points="114.09 51.45 104.02 51.45 104.01 51.45 64.18 51.45 64.18 83.59 74.42 83.59 74.42 88.39 103.63 88.39 103.63 83.59 114.09 83.59 114.09 51.45"/><rect class="cls-16" x="71.8" y="109.48" width="34.67" height="72.78"/><polygon class="cls-5" points="72.9 111.87 106.21 111.87 106.21 108.68 71.54 108.68 71.54 181.46 72.9 181.46 72.9 111.87"/><rect class="cls-17" x="75.44" y="115.26" width="10.97" height="11.56"/><rect class="cls-18" x="76.24" y="116.26" width="9.17" height="0.8"/><rect class="cls-17" x="91.19" y="115.26" width="10.97" height="11.56"/><rect class="cls-18" x="91.99" y="116.26" width="9.17" height="0.8"/><rect class="cls-17" x="75.44" y="129.62" width="10.97" height="11.56"/><rect class="cls-18" x="76.24" y="130.61" width="9.17" height="0.8"/><rect class="cls-17" x="91.19" y="129.62" width="10.97" height="11.56"/><rect class="cls-18" x="91.99" y="130.61" width="9.17" height="0.8"/><rect class="cls-17" x="75.44" y="152.55" width="10.97" height="11.56"/><rect class="cls-18" x="76.24" y="153.54" width="9.17" height="0.8"/><rect class="cls-17" x="91.19" y="152.55" width="10.97" height="11.56"/><rect class="cls-18" x="91.99" y="153.54" width="9.17" height="0.8"/><rect class="cls-17" x="75.44" y="166.9" width="10.97" height="11.56"/><rect class="cls-18" x="76.24" y="167.9" width="9.17" height="0.8"/><rect class="cls-17" x="91.19" y="166.9" width="10.97" height="11.56"/><rect class="cls-18" x="91.99" y="167.9" width="9.17" height="0.8"/><ellipse class="cls-13" cx="100.57" cy="145.97" rx="1.4" ry="1.79"/><circle class="cls-13" cx="100.57" cy="148.76" r="1.79"/><circle class="cls-14" cx="100.57" cy="147.76" r="0.7"/><rect class="cls-19" x="75.34" y="144.97" width="18.94" height="4.79"/><rect class="cls-20" x="76.94" y="146.37" width="15.75" height="1.99"/><polygon class="cls-12" points="70.39 107.69 70.39 182.26 72.25 182.26 72.25 109.87 106.21 109.87 106.21 182.26 107.88 182.26 107.88 107.69 70.39 107.69"/><polygon class="cls-13" points="69 106.09 69 182.21 70.99 182.21 70.99 108.27 107.48 108.27 107.48 182.21 109.28 182.21 109.28 106.09 69 106.09"/><rect class="cls-21" x="67.7" y="182.11" width="42.88" height="3.01"/><rect class="cls-22" x="66.61" y="181.44" width="45.06" height="1.13"/><rect class="cls-23" x="62.95" y="185.11" width="52.37" height="3.99"/><rect class="cls-21" x="63.75" y="185.66" width="50.78" height="2.04"/><rect class="cls-22" x="61.62" y="184.23" width="55.03" height="1.5"/><rect class="cls-24" x="93.29" y="145.56" width="0.67" height="3.09"/><rect class="cls-24" x="75.81" y="145.56" width="0.67" height="3.09"/><rect class="cls-25" x="76.51" y="52.85" width="24.92" height="27.12"/><path class="cls-26" d="M141.77,99.93s-3,13.76-12.76,13.76V99.93h12.76Z" transform="translate(-52.59 -47.18)"/><path class="cls-26" d="M141.57,99.93s3,13.76,12.76,13.76V99.93H141.57Z" transform="translate(-52.59 -47.18)"/><polygon class="cls-27" points="102.5 65.71 89.84 65.71 89.84 53.05 88.25 53.05 88.25 65.71 75.59 65.71 75.59 67.31 88.25 67.31 88.25 79.97 89.84 79.97 89.84 67.31 102.5 67.31 102.5 65.71"/><polygon class="cls-28" points="75.71 51.09 75.71 80.97 77.26 80.97 77.26 53.24 100.83 53.24 100.83 80.97 102.38 80.97 102.38 51.09 75.71 51.09"/><polygon class="cls-5" points="76.71 52.29 76.71 82.16 78.15 82.16 78.15 54.44 100.14 54.44 100.14 82.16 101.58 82.16 101.58 52.29 76.71 52.29"/><rect class="cls-29" x="65.6" y="50.49" width="8.19" height="29.68"/><path class="cls-5" d="M118,97.67v29.68h8.59V97.67H118Zm7.52,28.42h-6.44V113.49h6.43V112h-6.43V98.24h6.44v27.85Z" transform="translate(-52.59 -47.18)"/><path class="cls-30" d="M117.37,96.48v31.37h9.84V96.48h-9.84Zm8.61,30H118.6V113.19H126v-1.6H118.6V97.81H126v28.71Z" transform="translate(-52.59 -47.18)"/><rect class="cls-31" x="104.48" y="50.49" width="8.19" height="29.68"/><path class="cls-5" d="M165.47,97.67v29.68h-8.59V97.67h8.59ZM158,126.09h6.44V113.49H158V112h6.43V98.24H158v27.85Z" transform="translate(-52.59 -47.18)"/><path class="cls-32" d="M166.09,96.48v31.37h-9.84V96.48h9.84Zm-8.61,30h7.38V113.19H157.5v-1.6h7.36V97.81h-7.38v28.71Z" transform="translate(-52.59 -47.18)"/><polygon class="cls-33" points="74.44 49.3 74.44 80.97 76.14 80.97 76.14 51.58 101.96 51.58 101.96 80.97 103.65 80.97 103.65 49.3 74.44 49.3"/><rect class="cls-23" x="74.77" y="80.61" width="28.51" height="4.74"/><rect class="cls-21" x="75.59" y="80.59" width="26.62" height="3.32"/><rect class="cls-22" x="73.39" y="79.53" width="31.14" height="1.44"/><polygon class="cls-34" points="99.24 68.9 99.24 76.98 90.67 76.98 90.67 78.97 100.44 78.97 100.44 68.9 99.24 68.9"/><polygon class="cls-34" points="99.24 55.15 99.24 63.22 90.67 63.22 90.67 65.22 100.44 65.22 100.44 55.15 99.24 55.15"/><rect class="cls-34" x="78.3" y="63.22" width="9.77" height="1.99"/><rect class="cls-34" x="78.3" y="76.98" width="9.77" height="1.99"/></g></g></svg>