<svg id="Objects" xmlns="http://www.w3.org/2000/svg" viewBox="0 0 322.01 143.69"><defs><style>.cls-1,.cls-3,.cls-4{fill:#596775;}.cls-2{font-size:60px;fill:#596775;font-family:DecimaNovaPro Bold;}.cls-2,.cls-3{font-weight:700;}.cls-3{font-size:48px;font-family:BlueVinyl Bold;}.cls-4{stroke:#596775;stroke-miterlimit:10;}</style></defs><title>logo</title><path class="cls-1" d="M483.45,421.3c-13.33-4-28.51-.53-28.51-0.53l-3.27,11a85.8,85.8,0,0,1,27.26,5.38,247.77,247.77,0,0,1,25.62,11.12l3.55-12s-11.32-11.08-24.65-15h0Z" transform="translate(-208.1 -395.48)"/><path class="cls-1" d="M530.11,436.2l-4.42-4.48,0.42-1.39s3.71-7.1-5.91-5.66a1.7,1.7,0,0,0-1,.47l-29.11-29.67-53.57,12.59,15,13,0.77-2.55s16.93-3.84,31.79.56,27.49,16.79,27.49,16.79l-1.32,4.45,11.06-2.3c-1.77,6-3.81,12.8-4.42,14.93L513.7,452l-2.18,7.37,5.1-1.66,3.81,4.29,2.2-7.36-3.43-1L524,437.49Zm-5.93-7.83c0,0.18-.19.68-0.41,1.39l-2.33-2.37C522.67,427,524.7,426.61,524.18,428.37Zm-0.45,6.29a2.33,2.33,0,1,1-1.57-2.89A2.34,2.34,0,0,1,523.73,434.66Z" transform="translate(-208.1 -395.48)"/><text class="cls-2" transform="translate(0 94.21)">A<tspan x="35.82" y="0">C</tspan><tspan x="70.86" y="0">ADEMIC</tspan></text><text class="cls-3" transform="translate(1.5 131.69)">ad<tspan x="50.21" y="0">v</tspan><tspan x="72.81" y="0">e</tspan><tspan x="96.86" y="0">n</tspan><tspan x="123.31" y="0">tu</tspan><tspan x="165.65" y="0">r</tspan><tspan x="180.86" y="0">es</tspan></text><line class="cls-4" x1="5.5" y1="37.61" x2="233.49" y2="37.61"/></svg>