<svg id="Режим_изоляции" data-name="Режим изоляции" xmlns="http://www.w3.org/2000/svg" viewBox="0 0 467.31 41.49"><defs><style>.cls-1{fill:#fff;}</style></defs><title>wave-light</title><path class="cls-1" d="M466.56,18.22a5.4,5.4,0,0,1-9.31,5.47q-0.12-.2-0.22-0.41a23.79,23.79,0,0,0-8.62-9.16,22.86,22.86,0,0,0-11.9-3.31,23.12,23.12,0,0,0-12,3.33,23.38,23.38,0,0,0-8.59,9.12,34,34,0,0,1-30.17,18.2,33.68,33.68,0,0,1-17.49-4.92,34.6,34.6,0,0,1-12.6-13.32A23.82,23.82,0,0,0,347,14.06a23.17,23.17,0,0,0-23.92,0,23.44,23.44,0,0,0-8.61,9.13,34,34,0,0,1-30.13,18.23,33.59,33.59,0,0,1-17.47-4.92,34.61,34.61,0,0,1-12.59-13.29,23.78,23.78,0,0,0-8.62-9.16,22.85,22.85,0,0,0-11.9-3.31,23.25,23.25,0,0,0-20.62,12.45,5.38,5.38,0,1,1-9.53-5A34,34,0,0,1,233.74,0a33.59,33.59,0,0,1,17.47,4.92,34.63,34.63,0,0,1,12.58,13.33,23.78,23.78,0,0,0,8.62,9.16,22.86,22.86,0,0,0,11.9,3.31,23.13,23.13,0,0,0,12-3.33,23.37,23.37,0,0,0,8.59-9.12A34.24,34.24,0,0,1,317.47,4.89a33.8,33.8,0,0,1,35.09,0,34.61,34.61,0,0,1,12.6,13.33,23.82,23.82,0,0,0,8.66,9.16,22.92,22.92,0,0,0,11.92,3.31,23.25,23.25,0,0,0,20.64-12.47A34,34,0,0,1,436.51,0,33.59,33.59,0,0,1,454,4.91,34.61,34.61,0,0,1,466.56,18.22Z" transform="translate(0.01 0.03)"/><path class="cls-1" d="M263.56,18.22a5.4,5.4,0,1,1-9.31,5.47q-0.12-.2-0.22-0.41a23.79,23.79,0,0,0-8.62-9.16,22.86,22.86,0,0,0-11.9-3.31,23.12,23.12,0,0,0-12,3.33,23.38,23.38,0,0,0-8.59,9.12,34,34,0,0,1-30.17,18.2,33.68,33.68,0,0,1-17.49-4.92,34.6,34.6,0,0,1-12.6-13.32A23.82,23.82,0,0,0,144,14.06a23.17,23.17,0,0,0-23.92,0,23.44,23.44,0,0,0-8.61,9.13A34,34,0,0,1,81.34,41.45a33.59,33.59,0,0,1-17.47-4.92A34.61,34.61,0,0,1,51.28,23.24a23.78,23.78,0,0,0-8.62-9.16,22.85,22.85,0,0,0-11.9-3.31A23.25,23.25,0,0,0,10.14,23.22a5.38,5.38,0,1,1-9.53-5A34,34,0,0,1,30.74,0,33.59,33.59,0,0,1,48.21,4.89,34.63,34.63,0,0,1,60.79,18.22a23.78,23.78,0,0,0,8.62,9.16,22.86,22.86,0,0,0,11.9,3.31,23.13,23.13,0,0,0,12-3.33,23.37,23.37,0,0,0,8.59-9.12A34.24,34.24,0,0,1,114.47,4.89a33.8,33.8,0,0,1,35.09,0,34.61,34.61,0,0,1,12.6,13.33,23.82,23.82,0,0,0,8.66,9.16,22.92,22.92,0,0,0,11.92,3.31,23.25,23.25,0,0,0,20.64-12.47A34,34,0,0,1,233.51,0,33.59,33.59,0,0,1,251,4.91,34.61,34.61,0,0,1,263.56,18.22Z" transform="translate(0.01 0.03)"/></svg>