<svg id="Режим_изоляции" data-name="Режим изоляции" xmlns="http://www.w3.org/2000/svg" viewBox="0 0 467.2 41.51"><defs><style>.cls-1{fill:#009cd9;}</style></defs><title>wave</title><path class="cls-1" d="M718,613a5.4,5.4,0,1,1-9.53,5.06,23.79,23.79,0,0,0-8.62-9.16,22.86,22.86,0,0,0-11.9-3.31,23.12,23.12,0,0,0-12,3.33,23.38,23.38,0,0,0-8.59,9.12,34,34,0,0,1-30.17,18.2,33.68,33.68,0,0,1-17.49-4.92A34.6,34.6,0,0,1,607.1,618a23.82,23.82,0,0,0-8.66-9.16,22.93,22.93,0,0,0-11.92-3.31,23.16,23.16,0,0,0-12,3.34,23.44,23.44,0,0,0-8.61,9.13,34,34,0,0,1-30.13,18.23,33.59,33.59,0,0,1-17.47-4.92,34.61,34.61,0,0,1-12.59-13.29,23.78,23.78,0,0,0-8.62-9.16,22.85,22.85,0,0,0-11.9-3.31A23.25,23.25,0,0,0,464.58,618a5.38,5.38,0,1,1-9.53-5,34,34,0,0,1,30.13-18.25,33.59,33.59,0,0,1,17.47,4.92A34.63,34.63,0,0,1,515.23,613a23.78,23.78,0,0,0,8.62,9.16,22.86,22.86,0,0,0,11.9,3.31,23.13,23.13,0,0,0,12-3.33,23.37,23.37,0,0,0,8.59-9.12,34.24,34.24,0,0,1,12.57-13.35,33.8,33.8,0,0,1,35.09,0A34.61,34.61,0,0,1,616.6,613a23.82,23.82,0,0,0,8.66,9.16,22.92,22.92,0,0,0,11.92,3.31A23.25,23.25,0,0,0,657.82,613a34,34,0,0,1,30.13-18.23,33.59,33.59,0,0,1,17.47,4.92A34.61,34.61,0,0,1,718,613Z" transform="translate(-251.44 -594.78)"/><path class="cls-1" d="M515,613a5.4,5.4,0,1,1-9.53,5.06,23.79,23.79,0,0,0-8.62-9.16,22.86,22.86,0,0,0-11.9-3.31,23.12,23.12,0,0,0-12,3.33,23.38,23.38,0,0,0-8.59,9.12,34,34,0,0,1-30.17,18.2,33.68,33.68,0,0,1-17.49-4.92A34.6,34.6,0,0,1,404.1,618a23.82,23.82,0,0,0-8.66-9.16,22.93,22.93,0,0,0-11.92-3.31,23.16,23.16,0,0,0-12,3.34,23.44,23.44,0,0,0-8.61,9.13,34,34,0,0,1-30.13,18.23,33.59,33.59,0,0,1-17.47-4.92,34.61,34.61,0,0,1-12.59-13.29,23.78,23.78,0,0,0-8.62-9.16,22.85,22.85,0,0,0-11.9-3.31A23.25,23.25,0,0,0,261.58,618a5.38,5.38,0,1,1-9.53-5,34,34,0,0,1,30.13-18.25,33.59,33.59,0,0,1,17.47,4.92A34.63,34.63,0,0,1,312.23,613a23.78,23.78,0,0,0,8.62,9.16,22.86,22.86,0,0,0,11.9,3.31,23.13,23.13,0,0,0,12-3.33,23.37,23.37,0,0,0,8.59-9.12,34.24,34.24,0,0,1,12.57-13.35,33.8,33.8,0,0,1,35.09,0A34.61,34.61,0,0,1,413.6,613a23.82,23.82,0,0,0,8.66,9.16,22.92,22.92,0,0,0,11.92,3.31A23.25,23.25,0,0,0,454.82,613a34,34,0,0,1,30.13-18.23,33.59,33.59,0,0,1,17.47,4.92A34.61,34.61,0,0,1,515,613Z" transform="translate(-251.44 -594.78)"/></svg>