<?xml version="1.0" standalone="no"?>
<!DOCTYPE svg PUBLIC "-//W3C//DTD SVG 20010904//EN"
 "http://www.w3.org/TR/2001/REC-SVG-20010904/DTD/svg10.dtd">
<svg version="1.0" xmlns="http://www.w3.org/2000/svg"
 width="656.000000pt" height="656.000000pt" viewBox="0 0 656.000000 656.000000"
 preserveAspectRatio="xMidYMid meet">
<metadata>
Created by potrace 1.11, written by Peter Selinger 2001-2013
</metadata>
<g transform="translate(0.000000,656.000000) scale(0.100000,-0.100000)"
fill="#000000" stroke="none">
<path d="M2810 6361 c-459 -109 -1160 -273 -1557 -367 -398 -93 -723 -171
-723 -174 0 -10 861 -755 873 -755 6 0 21 30 32 67 12 37 23 70 26 72 3 3 61
14 130 25 642 104 1256 83 1744 -59 448 -131 990 -447 1460 -852 162 -141 151
-111 105 -263 -22 -71 -38 -130 -36 -132 2 -2 144 26 316 62 172 36 316 64
320 63 6 -2 -235 -846 -244 -855 -1 -2 -40 8 -86 22 -47 14 -89 24 -94 22 -10
-3 -136 -418 -130 -429 3 -3 69 15 149 42 l145 49 112 -125 c61 -68 114 -121
117 -119 3 3 33 101 68 218 42 144 59 213 51 218 -6 4 -50 17 -97 30 -47 12
-87 23 -88 24 -4 2 273 935 279 940 3 3 80 20 172 39 92 18 170 36 173 40 4 4
-51 65 -122 136 l-129 130 32 95 c39 114 41 175 9 236 -17 32 -37 50 -72 69
-46 23 -60 25 -182 25 -92 0 -136 -4 -145 -12 -6 -7 -15 -13 -18 -13 -4 0
-390 389 -859 865 -631 640 -859 865 -874 864 -12 -1 -398 -90 -857 -198z
m2868 -1706 c2 -16 -1 -47 -8 -69 l-12 -39 -64 64 c-73 72 -70 80 26 76 53 -2
55 -3 58 -32z m-93 -249 c88 -37 85 -184 -4 -231 -43 -22 -103 -19 -135 6
-129 102 -14 289 139 225z"/>
<path d="M2165 5149 c-160 -11 -540 -61 -552 -72 -6 -7 -192 -651 -189 -655 3
-2 36 -6 73 -8 358 -22 653 -65 961 -140 65 -16 73 -21 69 -39 -2 -11 -341
-846 -752 -1855 -411 -1009 -748 -1842 -748 -1850 -2 -13 38 -15 295 -18 l297
-2 33 87 c18 48 103 272 188 498 l156 410 934 2 935 3 164 -438 c91 -240 176
-465 189 -499 l24 -63 294 0 c162 0 294 4 294 9 0 4 -310 772 -689 1707 -380
934 -688 1700 -686 1702 10 10 570 -234 891 -388 92 -44 172 -79 178 -77 5 2
56 158 113 348 l103 344 -62 59 c-158 148 -470 379 -694 514 -205 123 -468
245 -659 305 -326 102 -743 144 -1160 116z m1140 -2228 c206 -525 374 -955
372 -957 -2 -2 -341 -3 -754 -2 l-749 3 375 957 c207 526 377 956 378 955 1
-1 171 -431 378 -956z"/>
</g>
</svg>
